<?xml version="1.0" encoding="UTF-8" standalone="no"?>
<svg
   width="500"
   height="500"
   viewBox="0 0 132.29167 132.29167"
   version="1.1"
   id="svg8"
   inkscape:version="1.2.2 (732a01da63, 2022-12-09)"
   sodipodi:docname="logosencomptes.svg"
   xml:space="preserve"
   xmlns:inkscape="http://www.inkscape.org/namespaces/inkscape"
   xmlns:sodipodi="http://sodipodi.sourceforge.net/DTD/sodipodi-0.dtd"
   xmlns="http://www.w3.org/2000/svg"
   xmlns:svg="http://www.w3.org/2000/svg"
   xmlns:rdf="http://www.w3.org/1999/02/22-rdf-syntax-ns#"
   xmlns:cc="http://creativecommons.org/ns#"
   xmlns:dc="http://purl.org/dc/elements/1.1/"><defs
     id="defs2"><clipPath
       clipPathUnits="userSpaceOnUse"
       id="clipPath849"><rect
         style="fill:#cccccc;fill-opacity:0.59396;stroke-width:0.0491408"
         id="rect851"
         width="216.95833"
         height="82.550003"
         x="32.598606"
         y="62.923553" /></clipPath><clipPath
       id="clipPath957"
       clipPathUnits="userSpaceOnUse"><rect
         style="fill:#cccccc;fill-opacity:0.59396;stroke-width:0.0491408"
         id="rect959"
         width="216.95833"
         height="82.550003"
         x="18.700592"
         y="188.54024" /></clipPath><clipPath
       id="clipPath990"
       clipPathUnits="userSpaceOnUse"><rect
         y="778.28888"
         x="656.41394"
         height="168.91434"
         width="168.91434"
         id="rect992"
         style="fill:#020002;fill-opacity:1;stroke-width:1;stroke-linecap:round;stroke-linejoin:round;paint-order:stroke markers fill" /></clipPath><clipPath
       clipPathUnits="userSpaceOnUse"
       id="clipPath987"><circle
         style="fill:#ffffff;stroke-width:2.34201;stroke-linecap:round;stroke-linejoin:round;paint-order:stroke markers fill"
         id="circle989"
         cx="456.49637"
         cy="1677.3835"
         r="58.182251" /></clipPath><clipPath
       clipPathUnits="userSpaceOnUse"
       id="clipPath1076"><rect
         inkscape:export-ydpi="96"
         inkscape:export-xdpi="96"
         inkscape:export-filename="C:\Users\Hp\Documents\Inkscape\sunu film serie\serie 25.png"
         style="fill:#003157;fill-opacity:0.746594;stroke-width:3.14238;stroke-linecap:round;stroke-linejoin:round;paint-order:stroke markers fill"
         id="rect1078"
         width="285.75"
         height="508"
         x="826.19507"
         y="3467.8608" /></clipPath><clipPath
       clipPathUnits="userSpaceOnUse"
       id="clipPath1124"><rect
         y="3476.4136"
         x="425.29077"
         height="508"
         width="285.75"
         id="rect1126"
         style="fill:#003157;fill-opacity:0.495913;stroke-width:3.14238;stroke-linecap:round;stroke-linejoin:round;paint-order:stroke markers fill"
         inkscape:export-filename="C:\Users\Hp\Documents\Inkscape\sunu film serie\serie 25.png"
         inkscape:export-xdpi="96"
         inkscape:export-ydpi="96" /></clipPath><clipPath
       clipPathUnits="userSpaceOnUse"
       id="clipPath1179"><rect
         y="3467.8608"
         x="33.956974"
         height="508"
         width="285.75"
         id="rect1181"
         style="fill:#003157;fill-opacity:0.495913;stroke-width:3.14238;stroke-linecap:round;stroke-linejoin:round;paint-order:stroke markers fill"
         inkscape:export-filename="C:\Users\Hp\Documents\Inkscape\sunu film serie\serie 25.png"
         inkscape:export-xdpi="96"
         inkscape:export-ydpi="96" /></clipPath><clipPath
       clipPathUnits="userSpaceOnUse"
       id="clipPath1223"><rect
         inkscape:export-ydpi="96"
         inkscape:export-xdpi="96"
         inkscape:export-filename="C:\Users\Hp\Documents\Inkscape\sunu film serie\serie 25.png"
         style="fill:#003157;fill-opacity:0.495913;stroke-width:3.14238;stroke-linecap:round;stroke-linejoin:round;paint-order:stroke markers fill"
         id="rect1225"
         width="285.75"
         height="508"
         x="-341.23822"
         y="3486.0352" /></clipPath><clipPath
       clipPathUnits="userSpaceOnUse"
       id="clipPath1251"><rect
         y="3821.678"
         x="-843.19061"
         height="508"
         width="285.75"
         id="rect1253"
         style="fill:#003157;fill-opacity:0.495913;stroke-width:3.14238;stroke-linecap:round;stroke-linejoin:round;paint-order:stroke markers fill"
         inkscape:export-filename="C:\Users\Hp\Documents\Inkscape\sunu film serie\serie 25.png"
         inkscape:export-xdpi="96"
         inkscape:export-ydpi="96" /></clipPath><clipPath
       clipPathUnits="userSpaceOnUse"
       id="clipPath1289"><rect
         y="3467.8608"
         x="33.956974"
         height="508"
         width="285.75"
         id="rect1291"
         style="fill:#003157;fill-opacity:0.6;stroke-width:3.14238;stroke-linecap:round;stroke-linejoin:round;paint-order:stroke markers fill"
         inkscape:export-filename="C:\Users\Hp\Documents\Inkscape\sunu film serie\serie 25.png"
         inkscape:export-xdpi="96"
         inkscape:export-ydpi="96" /></clipPath><clipPath
       clipPathUnits="userSpaceOnUse"
       id="clipPath1436"><rect
         inkscape:export-ydpi="96"
         inkscape:export-xdpi="96"
         inkscape:export-filename="C:\Users\Hp\Documents\Inkscape\sunu film serie\serie 25.png"
         style="fill:#003157;fill-opacity:0.746594;stroke-width:3.14238;stroke-linecap:round;stroke-linejoin:round;paint-order:stroke markers fill"
         id="rect1438"
         width="285.75"
         height="508"
         x="1076.9285"
         y="6113.7256" /></clipPath><clipPath
       clipPathUnits="userSpaceOnUse"
       id="clipPath2248"><rect
         style="fill:#ce1126;fill-opacity:1;stroke-width:3.17101;stroke-linecap:round;stroke-linejoin:round;paint-order:stroke markers fill"
         id="rect2250"
         width="303.57907"
         height="303.57907"
         x="-87.98159"
         y="6619.0825" /></clipPath></defs><sodipodi:namedview
     id="base"
     pagecolor="#ffffff"
     bordercolor="#969696"
     borderopacity="1"
     inkscape:pageopacity="0"
     inkscape:pageshadow="2"
     inkscape:zoom="0.90509668"
     inkscape:cx="360.18252"
     inkscape:cy="314.33106"
     inkscape:document-units="px"
     inkscape:current-layer="layer1"
     inkscape:document-rotation="0"
     showgrid="false"
     inkscape:pagecheckerboard="true"
     inkscape:snap-global="false"
     inkscape:window-width="1920"
     inkscape:window-height="991"
     inkscape:window-x="-9"
     inkscape:window-y="-9"
     inkscape:window-maximized="1"
     inkscape:showpageshadow="2"
     inkscape:deskcolor="#ffffff" /><metadata
     id="metadata5"><rdf:RDF><cc:Work
         rdf:about=""><dc:format>image/svg+xml</dc:format><dc:type
           rdf:resource="http://purl.org/dc/dcmitype/StillImage" /></cc:Work></rdf:RDF></metadata><g
     inkscape:label="Calque 1"
     inkscape:groupmode="layer"
     id="layer1"><path
       d=""
       id="path911"
       style="fill:#000000;stroke-width:0.0157982" /><path
       style="fill:#000000;stroke-width:0.0157982"
       id="path904"
       d="" /><path
       style="fill:#000000;stroke-width:0.0157982"
       id="path902"
       d="" /><g
       id="g7104"
       transform="matrix(0.45757829,0,0,0.45763123,142.43721,-19.03583)"><rect
         style="fill:#e6a6bb;fill-opacity:1;stroke:#ffffff;stroke-width:5.34383;stroke-linecap:round;stroke-linejoin:round;paint-order:stroke markers fill"
         id="rect7098"
         width="170.16409"
         height="186.36023"
         x="-250.44659"
         y="85.41362" /><g
         id="g6490"
         transform="translate(-273.67839,81.855469)"><path
           id="path3763"
           style="fill:#7c3fc4;fill-opacity:1;stroke-width:0.254"
           d="m 106.80175,-40.259019 c -9.166869,-0.002 -13.597389,0.3094 -21.717019,1.527 -15.85393,2.3774 -30.77652,7.2598 -45.21223,14.7924 -13.27318,6.926 -24.15796,14.9263002 -34.9487698,25.6868002 -5.89809997,5.8815 -9.09456,9.5158998 -13.44672,15.2904998 -16.5703602,21.9864 -26.1538702,46.9122 -28.7439902,74.7619 -0.50674,5.4487 -0.43203,20.497699 0.1292,26.034599 1.96026,19.3392 6.89075,36.0279 15.64607,52.959 1.2281,2.3749 2.70738,5.0919 3.28714,6.0374 0.57977,0.9454 1.0542,1.7731 1.0542,1.8391 0,0.3202 5.67353,8.7446 7.8594602,11.6701 16.89233,22.6069 39.1177298,39.3828 65.2926598,49.2843 13.559,5.1291 28.28798,8.2281 42.86043,9.0171 8.848479,0.479 20.160499,-0.022 28.894359,-1.2801 27.65997,-3.9842 53.9812,-16.192 74.80319,-34.6935 11.36578,-10.0991 20.31659,-20.8062 28.10423,-33.6191 8.22423,-13.5312 14.25885,-28.7493 17.57618,-44.3229 1.0378,-4.8721 2.15659,-11.8603 2.46032,-15.367 0.0908,-1.0478 0.20967,-2.1912 0.26407,-2.5404 0.0543,-0.3493 0.22771,-3.1495 0.3855,-6.2229 0.74104,-14.434099 -1.17973,-31.082399 -5.25962,-45.585799 -4.74665,-16.8735 -12.85867,-33.2512 -23.47712,-47.3997 -23.05701,-30.7221 -57.07184,-50.9738 -94.85675,-56.4756 -7.43747,-1.083 -12.07727,-1.3932 -20.95479,-1.3932 z M 85.442851,4.3697812 c 0.16525,0.0073 0.32942,0.0226 0.49196,0.046 2.406,0.3451 2.94933,0.8034 12.40699,10.4597998 l 9.079029,9.2697 2.03192,-2.1141 c 1.11753,-1.1626 5.23589,-5.3601 9.1519,-9.3281 7.90508,-8.0100998 8.23071,-8.2531998 11.05669,-8.2361998 4.74423,0.0283 7.76104,4.4718 6.18205,9.1058998 -0.36705,1.0773 -1.57383,2.4162 -9.25163,10.2671 -4.85612,4.9656 -8.79541,9.0618 -8.75451,9.1028 0.0409,0.041 5.60388,0.073 12.36255,0.063 12.62336,-0.0116 16.25216,0.1693 20.06286,1.001 13.94754,3.0441 25.38429,13.7465 29.32431,27.4418 1.5488,5.3836 1.45496,2.7212 1.56166,44.447899 0.0635,24.8454 0.007,39.1309 -0.16123,40.8094 -0.9734,9.707 -4.60268,17.4017 -11.43082,24.2331 -5.8814,5.8842 -12.50171,9.401 -20.84524,11.0738 -1.97211,0.3955 -5.52303,0.4363 -41.02076,0.4733 -21.374069,0.022 -39.319379,-0.002 -39.878179,-0.0547 -6.57719,-0.6197 -14.95741,-3.9389 -19.88096,-7.874 -8.23107,-6.5784 -13.03848,-14.4913 -14.94741,-24.6031 -0.45441,-2.4068 -0.47749,-4.4411 -0.47749,-42.1525 0,-36.928499 0.0307,-39.783799 0.45165,-41.970099 1.59493,-8.2833 4.88984,-14.7699 10.46913,-20.6106 5.79723,-6.069 12.95963,-9.9003 21.71806,-11.6174 1.82214,-0.3573 4.47746,-0.439 17.01808,-0.525 8.17244,-0.0558 14.81162,-0.1826 14.75362,-0.2816 -0.05801,-0.0988 -3.94438,-4.0921 -8.63616,-8.8744 -5.79345,-5.9053 -8.72567,-9.0795 -9.13898,-9.893 -0.84133,-1.6559 -0.86532,-4.0628998 -0.05736,-5.7318998 1.155,-2.3859 3.87939,-4.0381 6.35827,-3.9279 z" /><path
           id="path3767"
           style="fill:#7c3fc4;fill-opacity:1;stroke:#ffffff;stroke-width:0.254"
           d="m 86.779201,47.466881 c -15.5801,-0.0039 -16.30304,0.097 -18.22318,0.4883 -5.20513,1.0607 -9.43995,3.2588 -13.28963,6.8983 -5.02033,4.7463 -7.89763,10.6695 -8.51627,17.5312 -0.33105,3.6716 -0.31766,67.349199 0.01498,71.140899 0.57562,6.5613 3.05795,12.046 7.59179,16.7757 3.91338,4.0823 9.14369,6.917 14.61926,7.9231 1.39133,0.2556 9.62955,0.3313 37.881409,0.3493 31.6864,0.0201 36.35867,-0.0254 38.18888,-0.3726 5.37136,-1.0189 10.32503,-3.6542 14.16296,-7.5339 2.5418,-2.5695 3.69899,-4.1994 5.27978,-7.4373 1.57099,-3.2179 2.33391,-5.9734 2.66289,-9.6201 0.32255,-3.5753 0.31694,-67.890999 -0.006,-71.298399 -0.64693,-6.8221 -3.41168,-12.5618 -8.33903,-17.3116 -3.37568,-3.2542 -7.21152,-5.4217 -12.10675,-6.841 l -2.03192,-0.5891 -36.76158,-0.0708 c -9.089559,-0.0176 -15.934019,-0.0307 -21.127389,-0.032 z m 20.443199,11.5099 c 14.57734,0 21.79763,8.7193 21.79763,23.9778 v 3.9512 h -14.16864 v -4.9046 c 0,-6.8118 -2.72479,-9.4005 -7.49309,-9.4005 -4.76829,0 -7.492559,2.5883 -7.492559,9.1277 0,6.948 3.133309,11.9889 12.942359,20.571799 12.53379,11.0352 16.48478,18.6644 16.48478,30.517 0,15.531 -7.90209,24.2502 -22.61567,24.2502 -14.713579,0 -22.070489,-8.7188 -22.070489,-23.9773 v -5.4498 h 14.16865 v 6.5396 c 0,6.8119 2.997639,9.2641 7.765929,9.2641 4.76829,0 7.76542,-2.4526 7.76542,-9.5369 0,-7.9018 -2.9974,-12.9424 -12.80646,-21.5253 -12.533789,-11.0352 -16.620689,-18.800599 -16.620689,-29.699499 0,-14.9861 7.76548,-23.7055 22.342829,-23.7055 z" /></g></g></g></svg>
